#N canvas 327 23 394 228 10;
#X obj 20 24 loadbang;
#X obj 149 63 s init1;
#X obj 84 63 s init2;
#X obj 20 63 s init3;
#X obj 20 43 trigger bang bang bang;
#X text 17 104 This module ensures that the different components of
the patch are initialised in the correct order \, as it is important
that some modules are initialised before others.;
#X text 53 160 The trigger object outputs bangs from right to left.
;
#X connect 0 0 4 0;
#X connect 4 0 3 0;
#X connect 4 1 2 0;
#X connect 4 2 1 0;
