#N canvas 0 23 1188 755 10;
#X obj 489 548 s chordSeqList;
#X obj 13 12 table chordSequence;
#X obj 356 611 s repeats;
#X text 509 40 chord sequence;
#X text 368 40 #repeats;
#X obj 13 44 r sectionInitialiser;
#X text 248 40 identifier;
#X obj 331 71 bng 15 250 50 0 empty empty empty 17 7 0 10 -262144 -1
-1;
#X obj 453 71 bng 15 250 50 0 empty empty empty 17 7 0 10 -262144 -1
-1;
#X obj 238 669 s selSection;
#X msg 266 106 SV1;
#X obj 331 107 bng 15 250 50 0 empty empty empty 17 7 0 10 -262144
-1 -1;
#X obj 453 107 bng 15 250 50 0 empty empty empty 17 7 0 10 -262144
-1 -1;
#X msg 387 124 1;
#X obj 331 125 bng 15 250 50 0 empty empty empty 17 7 0 10 -262144
-1 -1;
#X obj 453 125 bng 15 250 50 0 empty empty empty 17 7 0 10 -262144
-1 -1;
#X msg 387 142 1;
#X obj 331 143 bng 15 250 50 0 empty empty empty 17 7 0 10 -262144
-1 -1;
#X obj 453 143 bng 15 250 50 0 empty empty empty 17 7 0 10 -262144
-1 -1;
#X obj 331 161 bng 15 250 50 0 empty empty empty 17 7 0 10 -262144
-1 -1;
#X obj 453 161 bng 15 250 50 0 empty empty empty 17 7 0 10 -262144
-1 -1;
#X obj 331 179 bng 15 250 50 0 empty empty empty 17 7 0 10 -262144
-1 -1;
#X obj 453 179 bng 15 250 50 0 empty empty empty 17 7 0 10 -262144
-1 -1;
#X msg 387 196 1;
#X obj 331 197 bng 15 250 50 0 empty empty empty 17 7 0 10 -262144
-1 -1;
#X obj 453 196 bng 15 250 50 0 empty empty empty 17 7 0 10 -262144
-1 -1;
#X obj 331 215 bng 15 250 50 0 empty empty empty 17 7 0 10 -262144
-1 -1;
#X obj 453 215 bng 15 250 50 0 empty empty empty 17 7 0 10 -262144
-1 -1;
#X msg 266 124 SV2;
#X msg 266 142 LS1;
#X msg 266 160 LS2;
#X msg 266 196 SE1;
#X msg 266 214 SE2;
#X msg 387 160 2;
#X msg 514 160 1 2 3 4 5 6 7 8;
#X msg 387 178 2;
#X msg 513 178 1 2 3 4;
#X msg 514 196 1 2 3 4 1 5 3 4;
#X obj 331 395 bng 15 250 50 0 empty empty empty 17 7 0 10 -262144
-1 -1;
#X obj 453 395 bng 15 250 50 0 empty empty empty 17 7 0 10 -262144
-1 -1;
#X obj 331 431 bng 15 250 50 0 empty empty empty 17 7 0 10 -262144
-1 -1;
#X obj 453 431 bng 15 250 50 0 empty empty empty 17 7 0 10 -262144
-1 -1;
#X obj 331 449 bng 15 250 50 0 empty empty empty 17 7 0 10 -262144
-1 -1;
#X obj 453 449 bng 15 250 50 0 empty empty empty 17 7 0 10 -262144
-1 -1;
#X obj 331 467 bng 15 250 50 0 empty empty empty 17 7 0 10 -262144
-1 -1;
#X obj 453 467 bng 15 250 50 0 empty empty empty 17 7 0 10 -262144
-1 -1;
#X obj 331 485 bng 15 250 50 0 empty empty empty 17 7 0 10 -262144
-1 -1;
#X obj 453 485 bng 15 250 50 0 empty empty empty 17 7 0 10 -262144
-1 -1;
#X obj 13 138 r sectionInitialiser;
#X text 171 40 section #;
#X text 204 70 1........;
#X text 204 88 2........;
#X text 204 106 3........;
#X text 204 125 4........;
#X text 204 143 5........;
#X text 204 161 6........;
#X text 204 179 7........;
#X text 204 197 8........;
#X text 204 215 9........;
#X text 198 233 10........;
#X text 198 251 11........;
#X text 198 269 12........;
#X text 198 287 13........;
#X text 198 305 14........;
#X text 198 323 15........;
#X text 198 341 16........;
#X msg 388 430 1;
#X msg 388 466 1;
#X msg 388 484 1;
#X msg 514 430 1 2 3 4 1 2 3 5;
#X obj 331 503 bng 15 250 50 0 empty empty empty 17 7 0 10 -262144
-1 -1;
#X obj 453 503 bng 15 250 50 0 empty empty empty 17 7 0 10 -262144
-1 -1;
#X text 198 359 17........;
#X obj 331 413 bng 15 250 50 0 empty empty empty 17 7 0 10 -262144
-1 -1;
#X obj 453 413 bng 15 250 50 0 empty empty empty 17 7 0 10 -262144
-1 -1;
#X msg 388 412 1;
#X msg 388 394 1;
#X text 198 377 18........;
#X msg 514 70 1 2 3 4 1 2 3 4 1 2 3 4 1 2 3;
#X msg 266 70 MC1;
#X obj 331 89 bng 15 250 50 0 empty empty empty 17 7 0 10 -262144 -1
-1;
#X obj 453 89 bng 15 250 50 0 empty empty empty 17 7 0 10 -262144 -1
-1;
#X text 198 395 19........;
#X msg 266 88 MC2;
#X msg 514 88 4 1 2 3 4 1 2 3 4 1 2 3 4 1 2 3 4;
#X obj 13 62 sel 1 2 3 4 5;
#X obj 13 157 sel 6 7 8 9 10;
#X obj 13 232 r sectionInitialiser;
#X obj 13 251 sel 11 12 13 14 15;
#X obj 13 322 r sectionInitialiser;
#X msg 387 70 1;
#X msg 387 88 1;
#X text 198 413 20........;
#X obj 13 341 sel 16 17 18 19 20;
#X msg 514 412 1 2 3 2 1 2 3 4 1 2 3 2 1 5 6 7 5 8 4;
#X msg 513 394 1 2 3 2 1 2 3 4 1 2 3 2 1 5 6 7 5 8 4;
#X msg 514 502 1 2;
#X msg 388 502 4;
#X msg 266 394 MV1;
#X msg 266 412 MV2;
#X msg 266 430 MV3;
#X msg 266 448 MV4;
#X msg 266 466 MV5;
#X msg 266 484 MV6;
#X msg 266 502 MV7;
#X msg 514 484 1 2 3 2 1 2 3 4 1 2 3 2 1 2 5 6 2 7 4;
#X msg 388 448 1;
#X msg 514 448 1 1 2 2 1 1 2 2 1 1 2 2 1 1;
#X msg 514 466 1 2 3 2 1 2 3 4;
#X msg 387 106 1;
#X msg 514 124 1 2 2 3 3 2 2 4 5;
#X msg 266 178 BR1;
#X msg 514 106 1 2 1 2 3 4 1 2 1 2 1 2 3 4 1;
#X msg 514 142 1 2 3 4 5 4 5 4 1 2 3 4 5 4;
#X msg 387 214 1;
#X msg 514 214 1 2 1 2 3 4 3 4 1 2 1 2 3 5 3 5 6;
#X obj 13 412 r sectionInitialiser;
#X obj 13 431 sel 21 22 23 24 25;
#X obj 331 233 bng 15 250 50 0 empty empty empty 17 7 0 10 -262144
-1 -1;
#X obj 453 233 bng 15 250 50 0 empty empty empty 17 7 0 10 -262144
-1 -1;
#X obj 331 251 bng 15 250 50 0 empty empty empty 17 7 0 10 -262144
-1 -1;
#X obj 453 251 bng 15 250 50 0 empty empty empty 17 7 0 10 -262144
-1 -1;
#X obj 331 269 bng 15 250 50 0 empty empty empty 17 7 0 10 -262144
-1 -1;
#X obj 453 269 bng 15 250 50 0 empty empty empty 17 7 0 10 -262144
-1 -1;
#X obj 331 287 bng 15 250 50 0 empty empty empty 17 7 0 10 -262144
-1 -1;
#X obj 453 287 bng 15 250 50 0 empty empty empty 17 7 0 10 -262144
-1 -1;
#X obj 331 305 bng 15 250 50 0 empty empty empty 17 7 0 10 -262144
-1 -1;
#X obj 453 305 bng 15 250 50 0 empty empty empty 17 7 0 10 -262144
-1 -1;
#X obj 331 323 bng 15 250 50 0 empty empty empty 17 7 0 10 -262144
-1 -1;
#X obj 453 323 bng 15 250 50 0 empty empty empty 17 7 0 10 -262144
-1 -1;
#X obj 331 341 bng 15 250 50 0 empty empty empty 17 7 0 10 -262144
-1 -1;
#X obj 453 341 bng 15 250 50 0 empty empty empty 17 7 0 10 -262144
-1 -1;
#X obj 331 359 bng 15 250 50 0 empty empty empty 17 7 0 10 -262144
-1 -1;
#X obj 453 359 bng 15 250 50 0 empty empty empty 17 7 0 10 -262144
-1 -1;
#X obj 331 377 bng 15 250 50 0 empty empty empty 17 7 0 10 -262144
-1 -1;
#X obj 453 377 bng 15 250 50 0 empty empty empty 17 7 0 10 -262144
-1 -1;
#X text 198 431 21........;
#X text 198 449 22........;
#X text 198 467 23........;
#X text 198 485 24........;
#X text 198 503 25........;
#X msg 266 232 DY1;
#X msg 266 250 DY2;
#X msg 266 268 DY3;
#X msg 266 286 DY4;
#X msg 266 304 DY5;
#X msg 266 322 DY6;
#X msg 266 340 DY7;
#X msg 266 358 DY8;
#X msg 266 376 DY9;
#X msg 387 232 1;
#X msg 387 250 1;
#X msg 387 268 1;
#X msg 387 304 1;
#X msg 387 340 1;
#X msg 387 358 1;
#X msg 387 376 1;
#X msg 387 286 1;
#X msg 387 322 2;
#X msg 514 232 1 2 3 4 5 6 7 8;
#X msg 514 250 1 2;
#X msg 514 268 1 2 3 4 5 1 2 3 4 5 1 2;
#X msg 514 286 1 2 3 4 5 6;
#X msg 514 304 1 2 3 4 5 1 2 3 4 5 1 2;
#X msg 514 358 1 2 3 4 5 6 7 8 9 1 2 3 4 5;
#X msg 514 376 1 2 3;
#X msg 514 322 1 2 3 4;
#X msg 514 340 1 2 3 4 5 6 7 8 9 10;
#X text 801 61 This module handles the identifiers \, default number
of repeats \, and chord sequences of each section in the set.;
#X text 795 106 Essentially it is where you set the sequence of chords
in each section \, and the number of times each section should repeat
by default.;
#X text 329 668 <-- lets the 'chord trigger distributor' in the 'chord
sequencing processor' know which section to route its counter to;
#X text 428 612 <-- sends a message above \, once triggered \, to the
'section repeater' in the 'chord sequencing processor' \, to let it
know how many times the section should repeat;
#X text 594 548 <-- sends a message to the 'chord table mapper' in
the 'chord sequencing processor' module. A 'chord sequence message'
will be sent through whenever a new section is triggered;
#X text 783 162 The advantage of this system \, and the other modules
that enable it \, is that sections can be easily managed \, altered
\, repeated \, and replaced.;
#X connect 5 0 85 0;
#X connect 7 0 90 0;
#X connect 8 0 78 0;
#X connect 10 0 11 0;
#X connect 10 0 9 0;
#X connect 11 0 109 0;
#X connect 12 0 112 0;
#X connect 13 0 15 0;
#X connect 13 0 2 0;
#X connect 14 0 13 0;
#X connect 15 0 110 0;
#X connect 16 0 18 0;
#X connect 16 0 2 0;
#X connect 17 0 16 0;
#X connect 18 0 113 0;
#X connect 19 0 33 0;
#X connect 20 0 34 0;
#X connect 21 0 35 0;
#X connect 22 0 36 0;
#X connect 23 0 25 0;
#X connect 23 0 2 0;
#X connect 24 0 23 0;
#X connect 25 0 37 0;
#X connect 26 0 114 0;
#X connect 27 0 115 0;
#X connect 28 0 14 0;
#X connect 28 0 9 0;
#X connect 29 0 17 0;
#X connect 29 0 9 0;
#X connect 30 0 19 0;
#X connect 30 0 9 0;
#X connect 31 0 24 0;
#X connect 31 0 9 0;
#X connect 32 0 26 0;
#X connect 32 0 9 0;
#X connect 33 0 20 0;
#X connect 33 0 2 0;
#X connect 34 0 0 0;
#X connect 35 0 22 0;
#X connect 35 0 2 0;
#X connect 36 0 0 0;
#X connect 37 0 0 0;
#X connect 38 0 76 0;
#X connect 39 0 95 0;
#X connect 40 0 66 0;
#X connect 41 0 69 0;
#X connect 42 0 106 0;
#X connect 43 0 107 0;
#X connect 44 0 67 0;
#X connect 45 0 108 0;
#X connect 46 0 68 0;
#X connect 47 0 105 0;
#X connect 48 0 86 0;
#X connect 66 0 41 0;
#X connect 66 0 2 0;
#X connect 67 0 45 0;
#X connect 67 0 2 0;
#X connect 68 0 47 0;
#X connect 68 0 2 0;
#X connect 69 0 0 0;
#X connect 70 0 97 0;
#X connect 71 0 96 0;
#X connect 73 0 75 0;
#X connect 74 0 94 0;
#X connect 75 0 74 0;
#X connect 75 0 2 0;
#X connect 76 0 39 0;
#X connect 76 0 2 0;
#X connect 78 0 0 0;
#X connect 79 0 7 0;
#X connect 79 0 9 0;
#X connect 80 0 91 0;
#X connect 81 0 84 0;
#X connect 83 0 80 0;
#X connect 83 0 9 0;
#X connect 84 0 0 0;
#X connect 85 0 79 0;
#X connect 85 1 83 0;
#X connect 85 2 10 0;
#X connect 85 3 28 0;
#X connect 85 4 29 0;
#X connect 86 0 30 0;
#X connect 86 1 111 0;
#X connect 86 2 31 0;
#X connect 86 3 32 0;
#X connect 86 4 141 0;
#X connect 87 0 88 0;
#X connect 88 0 142 0;
#X connect 88 1 143 0;
#X connect 88 2 144 0;
#X connect 88 3 145 0;
#X connect 88 4 146 0;
#X connect 89 0 93 0;
#X connect 90 0 8 0;
#X connect 90 0 2 0;
#X connect 91 0 81 0;
#X connect 91 0 2 0;
#X connect 93 0 147 0;
#X connect 93 1 148 0;
#X connect 93 2 149 0;
#X connect 93 3 98 0;
#X connect 93 4 99 0;
#X connect 94 0 0 0;
#X connect 95 0 0 0;
#X connect 96 0 0 0;
#X connect 97 0 71 0;
#X connect 97 0 2 0;
#X connect 98 0 38 0;
#X connect 98 0 9 0;
#X connect 99 0 73 0;
#X connect 99 0 9 0;
#X connect 100 0 40 0;
#X connect 100 0 9 0;
#X connect 101 0 42 0;
#X connect 101 0 9 0;
#X connect 102 0 44 0;
#X connect 102 0 9 0;
#X connect 103 0 46 0;
#X connect 103 0 9 0;
#X connect 104 0 70 0;
#X connect 104 0 9 0;
#X connect 105 0 0 0;
#X connect 106 0 43 0;
#X connect 106 0 2 0;
#X connect 107 0 0 0;
#X connect 108 0 0 0;
#X connect 109 0 12 0;
#X connect 109 0 2 0;
#X connect 110 0 0 0;
#X connect 111 0 21 0;
#X connect 111 0 9 0;
#X connect 112 0 0 0;
#X connect 113 0 0 0;
#X connect 114 0 27 0;
#X connect 114 0 2 0;
#X connect 115 0 0 0;
#X connect 116 0 117 0;
#X connect 117 0 100 0;
#X connect 117 1 101 0;
#X connect 117 2 102 0;
#X connect 117 3 103 0;
#X connect 117 4 104 0;
#X connect 118 0 150 0;
#X connect 119 0 159 0;
#X connect 120 0 151 0;
#X connect 121 0 160 0;
#X connect 122 0 152 0;
#X connect 123 0 161 0;
#X connect 124 0 157 0;
#X connect 125 0 162 0;
#X connect 126 0 153 0;
#X connect 127 0 163 0;
#X connect 128 0 158 0;
#X connect 129 0 166 0;
#X connect 130 0 154 0;
#X connect 131 0 167 0;
#X connect 132 0 155 0;
#X connect 133 0 164 0;
#X connect 134 0 156 0;
#X connect 135 0 165 0;
#X connect 141 0 118 0;
#X connect 141 0 9 0;
#X connect 142 0 120 0;
#X connect 142 0 9 0;
#X connect 143 0 122 0;
#X connect 143 0 9 0;
#X connect 144 0 124 0;
#X connect 144 0 9 0;
#X connect 145 0 126 0;
#X connect 145 0 9 0;
#X connect 146 0 128 0;
#X connect 146 0 9 0;
#X connect 147 0 130 0;
#X connect 147 0 9 0;
#X connect 148 0 132 0;
#X connect 148 0 9 0;
#X connect 149 0 134 0;
#X connect 149 0 9 0;
#X connect 150 0 119 0;
#X connect 150 0 2 0;
#X connect 151 0 121 0;
#X connect 151 0 2 0;
#X connect 152 0 123 0;
#X connect 152 0 2 0;
#X connect 153 0 127 0;
#X connect 153 0 2 0;
#X connect 154 0 131 0;
#X connect 154 0 2 0;
#X connect 155 0 133 0;
#X connect 155 0 2 0;
#X connect 156 0 135 0;
#X connect 156 0 2 0;
#X connect 157 0 125 0;
#X connect 157 0 2 0;
#X connect 158 0 129 0;
#X connect 158 0 2 0;
#X connect 159 0 0 0;
#X connect 160 0 0 0;
#X connect 161 0 0 0;
#X connect 162 0 0 0;
#X connect 163 0 0 0;
#X connect 164 0 0 0;
#X connect 165 0 0 0;
#X connect 166 0 0 0;
#X connect 167 0 0 0;
