#N canvas 0 23 927 300 10;
#X obj 15 105 table sectionSequence;
#X obj 45 219 s sectionSeqList;
#X obj 99 163 r init2;
#X msg 160 157 1 2 1 2 7 3 4 3 4 7 5 6 5 6 7 8 9 8 9 7 10 11 12 13
10 11 10 11 11 14 13 10 11 10 11 15 16 17 18 11 19 20 19 20 19 21 22
23 24 25;
#X text 165 13 This module stores the sequence of the sections in the
set. This information is used by the 'section sequencing processor'.
The chord sequences of these sections \, and their default number of
repeats \, are stored in the 'section manager' module.;
#X text 160 104 <-- declares a table \, for storing and accessing the
sequence of sections in the set;
#X text 157 219 <-- this sends the message itself to the 'section sequencing
processor' module \, where it will be prepended with an index number
and mapped to the sectionSequence table declared above.;
#X text 553 162 <-- this is the chosen sequence of sections. It can
be changed to any sequence of any length under 100;
#X connect 2 0 3 0;
#X connect 3 0 1 0;
