#N canvas 0 23 1280 688 10;
#X obj 793 161 s synth;
#X obj 956 160 s synth;
#X obj 66 467 s synth;
#X obj 796 391 s synth;
#X obj 796 531 s synth;
#X obj 647 471 s synth;
#X obj 635 298 s synth;
#X obj 21 278 tabread chordSequence;
#X obj 595 187 tabread chordSequence;
#X obj 595 169 r SV1;
#X obj 596 342 tabread chordSequence;
#X obj 596 324 r SV2;
#X obj 746 33 tabread chordSequence;
#X obj 746 13 r LS1;
#X obj 748 200 tabread chordSequence;
#X obj 748 180 r LS2;
#X obj 907 33 tabread chordSequence;
#X obj 907 13 r SE1;
#X obj 909 190 tabread chordSequence;
#X obj 909 170 r SE2;
#X obj 750 416 tabread chordSequence;
#X obj 596 361 sel 1 2 3 4 5;
#X obj 907 51 sel 1 2 3 4 5;
#X obj 750 435 sel 1 2 3 4;
#X obj 21 368 sel 1 2 3 4;
#X obj 748 219 sel 1 2 3 4 5 6 7 8;
#X obj 1705 52 sel 1 2 3 4 5;
#X obj 1705 210 sel 1 2;
#X obj 1931 199 s synth;
#X obj 1773 421 s synth;
#X obj 1768 162 s synth;
#X obj 1768 266 s synth;
#X obj 1610 216 s synth;
#X obj 1547 33 tabread chordSequence;
#X obj 1705 33 tabread chordSequence;
#X obj 1705 191 tabread chordSequence;
#X obj 1708 307 tabread chordSequence;
#X obj 1857 33 tabread chordSequence;
#X obj 1708 327 sel 1 2 3 4;
#X msg 21 388 40 52 55 59 64;
#X msg 21 406 45 57 61 64 69;
#X msg 22 424 36 52 55 60 64;
#X msg 22 442 41 57 60 64 69;
#X msg 748 239 40 55 59 62 66;
#X msg 748 258 39 54 58 61 66;
#X msg 749 277 38 54 57 61 66;
#X msg 749 296 37 52 56 59 68;
#X msg 750 454 40 47 52 55 59;
#X msg 750 473 40 52 55 59 64;
#X msg 750 492 40 55 59 64 67;
#X msg 750 511 40 59 64 67 71;
#X obj 1547 51 sel 1 2 3 4 5 6 7 8;
#X msg 747 107 45 54 60 64 66;
#X msg 747 125 47 54 57 63 66;
#X msg 747 143 42 54 57 60 64;
#X msg 750 353 47 54 57 64 0;
#X msg 750 372 47 54 57 63 0;
#X msg 908 105 45 56 61 64 0;
#X msg 908 87 40 56 59 63 0;
#X msg 908 123 45 61 64 68 0;
#X msg 909 141 40 54 56 59 0;
#X msg 595 225 40 52 55 59 0;
#X msg 595 261 45 54 60 64 0;
#X msg 597 434 42 57 60 64 0;
#X msg 597 452 47 54 57 63 0;
#X msg 747 71 40 52 55 59 0;
#X msg 1546 71 50 62 65 69 0;
#X msg 1547 107 43 58 62 67 0;
#X msg 1547 125 45 61 64 67 0;
#X msg 1547 179 43 58 62 65 0;
#X msg 1547 143 45 60 64 67 0;
#X msg 1547 197 46 62 65 69 0;
#X msg 1547 89 45 60 64 69 0;
#X msg 1705 229 45 57 60 64 0;
#X msg 1705 247 40 55 59 64 0;
#X msg 1709 400 42 54 58 61 64;
#X obj 1905 282 s synth;
#X msg 1857 246 47 59 61 62 66;
#X obj 1621 430 s synth;
#X obj 1549 266 sel 1 2 3 4 5 6 7 8;
#X msg 1549 285 50 57 62 65 0;
#X msg 1549 303 45 57 60 64 0;
#X msg 1549 321 43 55 58 62 0;
#X msg 1549 339 45 55 61 64 0;
#X msg 1549 411 46 57 62 65 0;
#X obj 1549 247 tabread chordSequence;
#X msg 1857 125 42 54 58 61 64;
#X msg 1857 161 40 55 59 62 0;
#X msg 1857 179 43 59 62 66 0;
#X obj 638 143 s synth;
#X msg 593 71 40 55 59 62 66;
#X msg 594 89 45 55 59 61 64;
#X msg 594 125 41 57 60 63 67;
#X obj 21 225 r MC1;
#X obj 593 33 tabread chordSequence;
#X obj 593 13 r MC2;
#X obj 593 52 sel 1 2 3 4;
#X msg 593 107 36 52 55 59 62;
#X msg 1549 357 45 55 57 60 64;
#X msg 1549 375 44 54 56 59 63;
#X msg 1549 393 43 53 55 58 62;
#X msg 1547 161 44 59 63 66 0;
#X msg 1857 143 41 56 60 63 0;
#X msg 1857 264 35 59 61 62 66;
#X obj 1857 227 sel 1 2;
#X obj 1547 14 r MV1;
#X obj 1549 228 r MV2;
#X obj 1705 14 r MV3;
#X obj 1705 172 r MV4;
#X obj 1708 288 r MV5;
#X obj 1857 14 r MV6;
#X obj 1857 208 r MV7;
#X msg 1708 346 52 64 67 71 0;
#X msg 1708 364 47 62 66 71 0;
#X msg 1709 382 45 60 64 69 0;
#X msg 1857 89 42 57 61 64 66;
#X msg 1857 107 40 55 59 62 64;
#X obj 1857 52 sel 1 2 3 4 5 6 7;
#X msg 1705 71 52 59 64 67 0;
#X msg 1705 89 47 59 62 66 0;
#X msg 1705 107 45 57 60 64 0;
#X msg 1705 125 47 57 63 66 0;
#X msg 1704 143 47 57 62 66 0;
#X msg 1857 71 47 54 59 62 66;
#X msg 596 380 43 59 62 66 0;
#X msg 596 398 48 52 55 59 0;
#X msg 597 416 49 52 56 59 0;
#X msg 749 315 36 52 55 59 67;
#X msg 749 334 36 52 55 59 64;
#X obj 750 396 r BR1;
#X msg 595 243 40 55 59 64 0;
#X msg 595 279 45 60 64 66 0;
#X obj 595 206 sel 1 2 3 4;
#X msg 747 89 40 52 55 59 64;
#X obj 746 52 sel 1 2 3 4 5;
#X msg 909 265 40 51 56 59 63;
#X msg 910 283 40 56 59 61 64;
#X obj 956 338 s synth;
#X msg 909 247 43 50 55 59 66;
#X msg 909 229 43 54 59 62 66;
#X msg 907 69 49 52 56 63 0;
#X msg 910 301 40 52 56 61 63;
#X msg 910 319 52 56 61 63 0;
#X obj 909 209 sel 1 2 3 4 5 6;
#X msg 1228 338 38 54 57 62 0;
#X obj 1435 506 s synth;
#X msg 1388 375 43 53 57 60 64;
#X msg 1388 430 36 52 55 58 62;
#X msg 1388 449 36 55 58 62 64;
#X msg 1388 468 45 55 59 61 64;
#X msg 1388 487 45 52 55 59 61;
#X msg 1388 339 40 56 59 63 0;
#X msg 1388 357 40 59 63 68 0;
#X msg 1388 393 43 53 57 62 0;
#X msg 1388 412 43 53 57 60 0;
#X obj 1118 346 s synth;
#X obj 1430 264 s synth;
#X msg 1387 70 45 55 61 64 0;
#X msg 1387 88 45 52 55 61 0;
#X msg 1387 106 38 53 57 64 0;
#X msg 1388 124 38 53 57 62 0;
#X msg 1388 142 42 52 58 61 0;
#X msg 1388 160 42 58 61 64 0;
#X msg 1388 178 47 54 59 63 0;
#X msg 1388 196 47 54 58 63 0;
#X msg 1388 215 47 54 57 63 0;
#X obj 1111 223 s synth;
#X msg 1066 71 40 55 59 64 0;
#X msg 1066 109 43 53 57 64 0;
#X msg 1067 128 43 53 57 62 0;
#X msg 1068 147 43 53 57 60 0;
#X msg 1068 166 36 52 55 59 0;
#X msg 1068 185 42 52 58 61 0;
#X msg 1068 204 47 54 57 63 0;
#X obj 1113 521 s synth;
#X msg 1068 428 36 55 59 64 0;
#X msg 1068 446 47 54 57 62 0;
#X msg 1068 464 39 55 59 63 0;
#X msg 1068 482 40 55 59 64 0;
#X msg 1068 500 37 57 61 64 0;
#X obj 1273 360 s synth;
#X msg 1227 266 36 55 59 64 0;
#X msg 1228 284 47 54 57 62 0;
#X msg 1228 302 39 55 59 63 0;
#X msg 1228 320 40 55 59 64 0;
#X msg 1066 90 40 52 55 59 64;
#X obj 1066 33 tabread chordSequence;
#X obj 1227 227 tabread chordSequence;
#X obj 1388 301 tabread chordSequence;
#X obj 1068 390 tabread chordSequence;
#X obj 1387 33 tabread chordSequence;
#X obj 1068 268 tabread chordSequence;
#X obj 1069 286 sel 1 2;
#X obj 1066 51 sel 1 2 3 4 5 6 7 8;
#X obj 1388 319 sel 1 2 3 4 5 6 7 8 9;
#X obj 1267 182 s synth;
#X msg 1226 71 38 59 62 66 0;
#X msg 1227 89 37 59 64 67 0;
#X msg 1227 126 36 52 55 59 0;
#X msg 1227 145 42 52 58 61 0;
#X msg 1227 163 47 54 57 63 0;
#X msg 1227 108 36 55 59 64 0;
#X obj 1068 408 sel 1 2 3 4 5;
#X obj 1226 33 tabread chordSequence;
#X obj 1226 51 sel 1 2 3 4 5 6;
#X obj 1227 245 sel 1 2 3 4 5;
#X obj 1276 525 s synth;
#X obj 1227 415 tabread chordSequence;
#X obj 1066 13 r DY1;
#X obj 1227 207 r DY5;
#X obj 1227 395 r DY6;
#X obj 1387 13 r DY7;
#X obj 1388 281 r DY8;
#X obj 1437 646 s synth;
#X msg 1391 590 36 52 55 59 0;
#X msg 1391 608 42 52 58 61 0;
#X msg 1391 626 47 54 57 63 0;
#X msg 1069 325 40 52 55 59 64;
#X msg 1069 306 40 52 54 55 59;
#X obj 1391 551 tabread chordSequence;
#X obj 1391 532 r DY9;
#X obj 1068 248 r DY2;
#X obj 1068 370 r DY3;
#X obj 1226 13 r DY4;
#X obj 1391 571 sel 1 2 3;
#X msg 1227 488 45 57 60 64 0;
#X msg 1227 452 40 52 56 59 62;
#X msg 1227 470 40 52 56 59 64;
#X obj 1227 433 sel 1 2 3 4;
#X msg 1227 506 45 57 60 64 69;
#X msg 1389 235 47 54 57 63 66;
#X obj 1387 51 sel 1 2 3 4 5 6 7 8 9 10;
#X text 20 14 This module is simply a data bank for the chord information
of each section.;
#X text 20 59 Each cluster represents one section of one particular
song.;
#X text 128 169 I'll use the first section as an example:;
#X text 76 224 <-- Receives numerical triggers \, but only if a section
with this particular identifier ('MC1') has been selected;
#X text 163 278 <-- The chord sequence for the current section has
already been loaded into the chord sequence table automatically.;
#X text 175 310 This object takes in the numerical trigger (an ascending
number \, eg 1 \, 2 \, 3 \, 4 \, 5) and outputs the corresponding number
in the chord sequence (eg 1 \, 2 \, 2 \, 3 \, 1).;
#X text 104 368 <-- Sends a bang to the correct chord;
#X text 128 468 <-- Sends the 'chord message' to the 'frequency generator'
module.;
#X text 139 411 <-- Each of these messages is a chord \, in Midi numbers.
When a bang is received \, that chord message is sent onward.;
#X text 26 93 When a particular chord in a particular song is triggered
\, that 'chord message' is sent onward to be converted into sound.
;
#X connect 7 0 24 0;
#X connect 8 0 132 0;
#X connect 9 0 8 0;
#X connect 10 0 21 0;
#X connect 11 0 10 0;
#X connect 12 0 134 0;
#X connect 13 0 12 0;
#X connect 14 0 25 0;
#X connect 15 0 14 0;
#X connect 16 0 22 0;
#X connect 17 0 16 0;
#X connect 18 0 143 0;
#X connect 19 0 18 0;
#X connect 20 0 23 0;
#X connect 21 0 124 0;
#X connect 21 1 125 0;
#X connect 21 2 126 0;
#X connect 21 3 63 0;
#X connect 21 4 64 0;
#X connect 22 0 140 0;
#X connect 22 1 58 0;
#X connect 22 2 57 0;
#X connect 22 3 59 0;
#X connect 22 4 60 0;
#X connect 23 0 47 0;
#X connect 23 1 48 0;
#X connect 23 2 49 0;
#X connect 23 3 50 0;
#X connect 24 0 39 0;
#X connect 24 1 40 0;
#X connect 24 2 41 0;
#X connect 24 3 42 0;
#X connect 25 0 43 0;
#X connect 25 1 44 0;
#X connect 25 2 45 0;
#X connect 25 3 46 0;
#X connect 25 4 127 0;
#X connect 25 5 128 0;
#X connect 25 6 55 0;
#X connect 25 7 56 0;
#X connect 26 0 118 0;
#X connect 26 1 119 0;
#X connect 26 2 120 0;
#X connect 26 3 121 0;
#X connect 26 4 122 0;
#X connect 27 0 73 0;
#X connect 27 1 74 0;
#X connect 33 0 51 0;
#X connect 34 0 26 0;
#X connect 35 0 27 0;
#X connect 36 0 38 0;
#X connect 37 0 117 0;
#X connect 38 0 112 0;
#X connect 38 1 113 0;
#X connect 38 2 114 0;
#X connect 38 3 75 0;
#X connect 39 0 2 0;
#X connect 40 0 2 0;
#X connect 41 0 2 0;
#X connect 42 0 2 0;
#X connect 43 0 3 0;
#X connect 44 0 3 0;
#X connect 45 0 3 0;
#X connect 46 0 3 0;
#X connect 47 0 4 0;
#X connect 48 0 4 0;
#X connect 49 0 4 0;
#X connect 50 0 4 0;
#X connect 51 0 66 0;
#X connect 51 1 72 0;
#X connect 51 2 67 0;
#X connect 51 3 68 0;
#X connect 51 4 70 0;
#X connect 51 5 101 0;
#X connect 51 6 69 0;
#X connect 51 7 71 0;
#X connect 52 0 0 0;
#X connect 53 0 0 0;
#X connect 54 0 0 0;
#X connect 55 0 3 0;
#X connect 56 0 3 0;
#X connect 57 0 1 0;
#X connect 58 0 1 0;
#X connect 59 0 1 0;
#X connect 60 0 1 0;
#X connect 61 0 6 0;
#X connect 62 0 6 0;
#X connect 63 0 5 0;
#X connect 64 0 5 0;
#X connect 65 0 0 0;
#X connect 66 0 32 0;
#X connect 67 0 32 0;
#X connect 68 0 32 0;
#X connect 69 0 32 0;
#X connect 70 0 32 0;
#X connect 71 0 32 0;
#X connect 72 0 32 0;
#X connect 73 0 31 0;
#X connect 74 0 31 0;
#X connect 75 0 29 0;
#X connect 77 0 76 0;
#X connect 79 0 80 0;
#X connect 79 1 81 0;
#X connect 79 2 82 0;
#X connect 79 3 83 0;
#X connect 79 4 98 0;
#X connect 79 5 99 0;
#X connect 79 6 100 0;
#X connect 79 7 84 0;
#X connect 80 0 78 0;
#X connect 81 0 78 0;
#X connect 82 0 78 0;
#X connect 83 0 78 0;
#X connect 84 0 78 0;
#X connect 85 0 79 0;
#X connect 86 0 28 0;
#X connect 87 0 28 0;
#X connect 88 0 28 0;
#X connect 90 0 89 0;
#X connect 91 0 89 0;
#X connect 92 0 89 0;
#X connect 93 0 7 0;
#X connect 94 0 96 0;
#X connect 95 0 94 0;
#X connect 96 0 90 0;
#X connect 96 1 91 0;
#X connect 96 2 97 0;
#X connect 96 3 92 0;
#X connect 97 0 89 0;
#X connect 98 0 78 0;
#X connect 99 0 78 0;
#X connect 100 0 78 0;
#X connect 101 0 32 0;
#X connect 102 0 28 0;
#X connect 103 0 76 0;
#X connect 104 0 77 0;
#X connect 104 1 103 0;
#X connect 105 0 33 0;
#X connect 106 0 85 0;
#X connect 107 0 34 0;
#X connect 108 0 35 0;
#X connect 109 0 36 0;
#X connect 110 0 37 0;
#X connect 111 0 104 0;
#X connect 112 0 29 0;
#X connect 113 0 29 0;
#X connect 114 0 29 0;
#X connect 115 0 28 0;
#X connect 116 0 28 0;
#X connect 117 0 123 0;
#X connect 117 1 115 0;
#X connect 117 2 116 0;
#X connect 117 3 86 0;
#X connect 117 4 102 0;
#X connect 117 5 87 0;
#X connect 117 6 88 0;
#X connect 118 0 30 0;
#X connect 119 0 30 0;
#X connect 120 0 30 0;
#X connect 121 0 30 0;
#X connect 122 0 30 0;
#X connect 123 0 28 0;
#X connect 124 0 5 0;
#X connect 125 0 5 0;
#X connect 126 0 5 0;
#X connect 127 0 3 0;
#X connect 128 0 3 0;
#X connect 129 0 20 0;
#X connect 130 0 6 0;
#X connect 131 0 6 0;
#X connect 132 0 61 0;
#X connect 132 1 130 0;
#X connect 132 2 62 0;
#X connect 132 3 131 0;
#X connect 133 0 0 0;
#X connect 134 0 65 0;
#X connect 134 1 133 0;
#X connect 134 2 52 0;
#X connect 134 3 53 0;
#X connect 134 4 54 0;
#X connect 135 0 137 0;
#X connect 136 0 137 0;
#X connect 138 0 137 0;
#X connect 139 0 137 0;
#X connect 140 0 1 0;
#X connect 141 0 137 0;
#X connect 142 0 137 0;
#X connect 143 0 139 0;
#X connect 143 1 138 0;
#X connect 143 2 135 0;
#X connect 143 3 136 0;
#X connect 143 4 141 0;
#X connect 143 5 142 0;
#X connect 144 0 180 0;
#X connect 146 0 145 0;
#X connect 147 0 145 0;
#X connect 148 0 145 0;
#X connect 149 0 145 0;
#X connect 150 0 145 0;
#X connect 151 0 145 0;
#X connect 152 0 145 0;
#X connect 153 0 145 0;
#X connect 154 0 145 0;
#X connect 157 0 156 0;
#X connect 158 0 156 0;
#X connect 159 0 156 0;
#X connect 160 0 156 0;
#X connect 161 0 156 0;
#X connect 162 0 156 0;
#X connect 163 0 156 0;
#X connect 164 0 156 0;
#X connect 165 0 156 0;
#X connect 167 0 166 0;
#X connect 168 0 166 0;
#X connect 169 0 166 0;
#X connect 170 0 166 0;
#X connect 171 0 166 0;
#X connect 172 0 166 0;
#X connect 173 0 166 0;
#X connect 175 0 174 0;
#X connect 176 0 174 0;
#X connect 177 0 174 0;
#X connect 178 0 174 0;
#X connect 179 0 174 0;
#X connect 181 0 180 0;
#X connect 182 0 180 0;
#X connect 183 0 180 0;
#X connect 184 0 180 0;
#X connect 185 0 166 0;
#X connect 186 0 193 0;
#X connect 187 0 205 0;
#X connect 188 0 194 0;
#X connect 189 0 202 0;
#X connect 190 0 231 0;
#X connect 191 0 192 0;
#X connect 192 0 218 0;
#X connect 192 1 217 0;
#X connect 193 0 167 0;
#X connect 193 1 185 0;
#X connect 193 2 168 0;
#X connect 193 3 169 0;
#X connect 193 4 170 0;
#X connect 193 5 171 0;
#X connect 193 6 172 0;
#X connect 193 7 173 0;
#X connect 194 0 151 0;
#X connect 194 1 152 0;
#X connect 194 2 146 0;
#X connect 194 3 153 0;
#X connect 194 4 154 0;
#X connect 194 5 147 0;
#X connect 194 6 148 0;
#X connect 194 7 149 0;
#X connect 194 8 150 0;
#X connect 196 0 195 0;
#X connect 197 0 195 0;
#X connect 198 0 195 0;
#X connect 199 0 195 0;
#X connect 200 0 195 0;
#X connect 201 0 195 0;
#X connect 202 0 175 0;
#X connect 202 1 176 0;
#X connect 202 2 177 0;
#X connect 202 3 178 0;
#X connect 202 4 179 0;
#X connect 203 0 204 0;
#X connect 204 0 196 0;
#X connect 204 1 197 0;
#X connect 204 2 201 0;
#X connect 204 3 198 0;
#X connect 204 4 199 0;
#X connect 204 5 200 0;
#X connect 205 0 181 0;
#X connect 205 1 182 0;
#X connect 205 2 183 0;
#X connect 205 3 184 0;
#X connect 205 4 144 0;
#X connect 207 0 228 0;
#X connect 208 0 186 0;
#X connect 209 0 187 0;
#X connect 210 0 207 0;
#X connect 211 0 190 0;
#X connect 212 0 188 0;
#X connect 214 0 213 0;
#X connect 215 0 213 0;
#X connect 216 0 213 0;
#X connect 217 0 155 0;
#X connect 218 0 155 0;
#X connect 219 0 224 0;
#X connect 220 0 219 0;
#X connect 221 0 191 0;
#X connect 222 0 189 0;
#X connect 223 0 203 0;
#X connect 224 0 214 0;
#X connect 224 1 215 0;
#X connect 224 2 216 0;
#X connect 225 0 206 0;
#X connect 226 0 206 0;
#X connect 227 0 206 0;
#X connect 228 0 226 0;
#X connect 228 1 227 0;
#X connect 228 2 225 0;
#X connect 228 3 229 0;
#X connect 229 0 206 0;
#X connect 230 0 156 0;
#X connect 231 0 157 0;
#X connect 231 1 158 0;
#X connect 231 2 159 0;
#X connect 231 3 160 0;
#X connect 231 4 161 0;
#X connect 231 5 162 0;
#X connect 231 6 163 0;
#X connect 231 7 164 0;
#X connect 231 8 165 0;
#X connect 231 9 230 0;
