#N canvas 39 23 992 350 10;
#X obj 184 268 osc~;
#X obj 184 287 *~;
#X obj 184 223 loadbang;
#X obj 184 101 mtof;
#X obj 220 101 mtof;
#X obj 255 101 mtof;
#X obj 290 101 mtof;
#X obj 325 101 mtof;
#X text 211 245 speed;
#X obj 220 122 +~;
#X obj 255 122 +~;
#X obj 290 122 +~;
#X obj 325 122 +~;
#X msg 184 246 4;
#X msg 256 246 2;
#X obj 184 144 s~ freq1;
#X obj 239 144 s~ freq2;
#X obj 294 144 s~ freq3;
#X obj 349 144 s~ freq4;
#X obj 404 144 s~ freq5;
#X obj 184 30 r synth;
#X obj 209 287 s~ chordModulation;
#X obj 358 101 receive~ chordModulation;
#X obj 313 49 sel 0;
#X msg 351 49 0 10;
#X msg 392 49 1 10;
#X obj 428 49 s osc5switch;
#X text 289 29 osc 5 auto on/off switch (prevents clicks);
#X obj 184 49 unpack 0 0 0 0 0;
#X obj 115 81 loadbang;
#X msg 142 62 2;
#X obj 184 78 -;
#X obj 220 78 -;
#X obj 255 79 -;
#X obj 291 79 -;
#X obj 325 79 -;
#X text 286 245 amount;
#X text 22 61 Transpose down by:;
#X text 615 26 At base \, this module takes in chord data \, and outputs
frequencies.;
#X text 585 172 Finally \, it adds a gentle vibrato to the chords \,
by modulating the frequencies of their individual notes. In doing this
\, it converts the discrete frequency data into a continuous stream.
;
#X text 597 239 The low oscillator is exempted from this process \,
as the bass sounds better without modulation.;
#X text 615 71 If necessary \, it also transposes the chords down (for
rehearsal).;
#X text 591 116 The 'osc 5 switch' helps eliminate any clicks that
might result from a missing top note (as not all chords use the 5th
oscillator).;
#X text 181 197 Chord Modulator;
#X text 603 284 Finally \, it sends frequencies out \, to be converted
into sound by the oscillators.;
#X connect 0 0 1 0;
#X connect 1 0 21 0;
#X connect 2 0 13 0;
#X connect 2 0 14 0;
#X connect 3 0 15 0;
#X connect 4 0 9 0;
#X connect 5 0 10 0;
#X connect 6 0 11 0;
#X connect 7 0 12 0;
#X connect 9 0 16 0;
#X connect 10 0 17 0;
#X connect 11 0 18 0;
#X connect 12 0 19 0;
#X connect 13 0 0 0;
#X connect 14 0 1 1;
#X connect 20 0 28 0;
#X connect 22 0 9 1;
#X connect 22 0 10 1;
#X connect 22 0 11 1;
#X connect 22 0 12 1;
#X connect 23 0 24 0;
#X connect 23 1 25 0;
#X connect 24 0 26 0;
#X connect 25 0 26 0;
#X connect 28 0 31 0;
#X connect 28 1 32 0;
#X connect 28 2 33 0;
#X connect 28 3 34 0;
#X connect 28 4 23 0;
#X connect 28 4 35 0;
#X connect 29 0 30 0;
#X connect 30 0 31 1;
#X connect 30 0 32 1;
#X connect 30 0 33 1;
#X connect 30 0 34 1;
#X connect 30 0 35 1;
#X connect 31 0 3 0;
#X connect 32 0 4 0;
#X connect 33 0 5 0;
#X connect 34 0 6 0;
#X connect 35 0 7 0;
