#N canvas 125 86 763 405 10;
#X obj 115 181 phasor~;
#X obj 164 181 phasor~;
#X obj 490 145 phasor~;
#X obj 61 296 expr~ $v1 > 0.5;
#X obj 61 316 expr~ $v1 > 0.5;
#X obj 61 355 expr~ $v1 > 0.5;
#X obj 61 335 expr~ $v1 > 0.5;
#X obj 66 181 phasor~;
#X obj 17 181 phasor~;
#X obj 490 54 osc~;
#X obj 16 62 osc~;
#X obj 49 62 osc~;
#X obj 80 62 osc~;
#X obj 111 62 osc~;
#X obj 17 230 /~ 4;
#X obj 16 43 r~ freq2;
#X obj 72 43 r~ freq3;
#X obj 128 43 r~ freq4;
#X obj 184 43 r~ freq5;
#X obj 435 145 r~ freq1;
#X obj 17 161 r~ freq2;
#X obj 71 161 r~ freq3;
#X obj 125 161 r~ freq4;
#X obj 179 161 r~ freq5;
#X obj 199 230 s~ ph2;
#X obj 243 230 s~ ph3;
#X obj 286 230 s~ ph4;
#X obj 329 230 s~ ph5;
#X obj 17 296 r~ ph2;
#X obj 17 316 r~ ph3;
#X obj 17 335 r~ ph4;
#X obj 17 355 r~ ph5;
#X obj 119 230 s~ sawChords;
#X obj 435 75 s~ sineBass;
#X obj 108 106 s~ sineChords;
#X obj 435 183 s~ sqBass;
#X obj 158 355 s~ sqChords;
#X obj 194 201 *~;
#X obj 219 201 vline~;
#X obj 142 82 *~;
#X obj 169 82 vline~;
#X obj 263 201 r osc5switch;
#X obj 212 81 r osc5switch;
#X obj 435 54 r~ freq1;
#X obj 115 200 /~ 1;
#X obj 164 200 /~ 1;
#X obj 111 81 /~ 1;
#X obj 80 81 /~ 1;
#X obj 435 164 expr~ $v1 > 0.5;
#X text 432 24 Sine bass;
#X text 432 116 Square bass;
#X obj 158 316 /~ 4;
#X obj 16 106 /~ 4;
#X obj 47 106 hip~ 2000;
#X obj 51 229 lop~ 20000;
#X obj 158 335 lop~ 15000;
#X text 384 319 It simply takes in the continuous streams of data from
the 'frequency generator' \, and converts them into sine \, sawtooth
\, and square waves \, forwarding them on to the filters.;
#X text 13 17 Sine chords;
#X text 15 133 Saw chords;
#X text 14 266 Square chords;
#X text 558 285 This is a very simple module.;
#X connect 0 0 44 0;
#X connect 1 0 45 0;
#X connect 2 0 48 0;
#X connect 3 0 51 0;
#X connect 4 0 51 0;
#X connect 5 0 51 0;
#X connect 6 0 51 0;
#X connect 7 0 14 0;
#X connect 7 0 25 0;
#X connect 8 0 14 0;
#X connect 8 0 24 0;
#X connect 9 0 33 0;
#X connect 10 0 52 0;
#X connect 11 0 52 0;
#X connect 12 0 47 0;
#X connect 13 0 46 0;
#X connect 14 0 54 0;
#X connect 15 0 10 0;
#X connect 16 0 11 0;
#X connect 17 0 12 0;
#X connect 18 0 13 0;
#X connect 19 0 2 0;
#X connect 20 0 8 0;
#X connect 21 0 7 0;
#X connect 22 0 0 0;
#X connect 23 0 1 0;
#X connect 28 0 3 0;
#X connect 29 0 4 0;
#X connect 30 0 6 0;
#X connect 31 0 5 0;
#X connect 37 0 14 0;
#X connect 37 0 27 0;
#X connect 38 0 37 1;
#X connect 39 0 52 0;
#X connect 40 0 39 1;
#X connect 41 0 38 0;
#X connect 42 0 40 0;
#X connect 43 0 9 0;
#X connect 44 0 26 0;
#X connect 44 0 14 0;
#X connect 45 0 37 0;
#X connect 46 0 39 0;
#X connect 47 0 52 0;
#X connect 48 0 35 0;
#X connect 51 0 55 0;
#X connect 52 0 53 0;
#X connect 53 0 34 0;
#X connect 54 0 32 0;
#X connect 55 0 36 0;
