#N canvas 78 23 774 273 10;
#X obj 27 117 clip~ 0 1;
#X obj 87 117 clip~ 0 1;
#X obj 27 156 s~ bigAdc1;
#X obj 93 156 s~ bigAdc2;
#X obj 147 117 clip~ 0 1;
#X obj 159 156 s~ bigAdc3;
#X obj 27 60 adc~ 3;
#X obj 87 60 adc~ 4;
#X obj 147 60 adc~ 5;
#X obj 39 136 dac~ 27;
#X obj 99 136 dac~ 28;
#X obj 160 136 dac~ 29;
#X obj 94 174 sig~;
#X msg 125 174 1;
#X obj 153 174 r adcBypass;
#X text 209 137 <--oscilloscope;
#X obj 147 79 -~ 0.36;
#X obj 147 98 *~ 3.7;
#X obj 27 79 -~ 0.33;
#X obj 27 98 *~ 3.03;
#X obj 87 79 -~ 0.33;
#X obj 87 98 *~ 5.88;
#X text 390 42 This module expands the signals coming from each of
the accelerometer axes.;
#X text 360 87 This allows the signals to be used expressively \, to
directly control amplitude and filters for the sounds in the patch.
;
#X text 366 132 Its basic aim is to ensure that each signal \, once
expanded \, comfortably covers the range between 0 and 1;
#X text 360 177 It also includes a bypass mechanism \, triggered by
a switch in the 'testing tools' module \, to allow testing of the patch
without the accelerometer.;
#X connect 0 0 2 0;
#X connect 0 0 9 0;
#X connect 1 0 3 0;
#X connect 1 0 10 0;
#X connect 4 0 5 0;
#X connect 4 0 11 0;
#X connect 6 0 18 0;
#X connect 7 0 20 0;
#X connect 8 0 16 0;
#X connect 12 0 5 0;
#X connect 12 0 2 0;
#X connect 12 0 3 0;
#X connect 13 0 12 0;
#X connect 14 0 13 0;
#X connect 16 0 17 0;
#X connect 17 0 4 0;
#X connect 18 0 19 0;
#X connect 19 0 0 0;
#X connect 20 0 21 0;
#X connect 21 0 1 0;
