#N canvas 132 165 618 491 10;
#X obj 18 260 dac~;
#X obj 18 175 r~ output;
#X text 16 153 Output;
#X obj 18 195 lop~ 20000;
#X obj 55 71 r~ bassMix;
#X obj 104 111 s~ output;
#X text 18 41 Master mix;
#X obj 18 214 hip~ 20;
#X obj 19 89 r~ doubledChords;
#X obj 18 234 /~ 2;
#X obj 122 71 *~ 0.5;
#X obj 122 90 *~ 0.5;
#X text 206 127 This very simple module combines the chord and bass
signals \, filters out undesired frequencies above and below a certain
range \, and outputs them to the digital to analog converter to be
output as sound.;
#X obj 20 405 vline~;
#X obj 20 344 r clap;
#X msg 20 364 0 1;
#X msg 60 384 1 250;
#X obj 59 363 del 250;
#X obj 19 425 s~ susEnvelope;
#X text 17 310 General sustain envelope;
#X text 212 206 It also contains the sustain envelope used by both
the Bass and Chords Filtering modules. This envelope governs the onset
of the sustained part of each chord \, after a clap has occured and
the 'attack' part of the chord has been triggered.;
#X connect 1 0 3 0;
#X connect 3 0 7 0;
#X connect 4 0 10 0;
#X connect 7 0 9 0;
#X connect 8 0 11 0;
#X connect 9 0 0 0;
#X connect 9 0 0 1;
#X connect 10 0 5 0;
#X connect 11 0 5 0;
#X connect 13 0 18 0;
#X connect 14 0 15 0;
#X connect 14 0 17 0;
#X connect 15 0 13 0;
#X connect 16 0 13 0;
#X connect 17 0 16 0;
