#N canvas 429 132 851 583 10;
#X obj 50 523 s adcBypass;
#X obj 50 505 bng 15 250 50 0 empty empty empty 17 7 0 10 -262144 -1
-1;
#X obj 51 108 s clap;
#X obj 51 72 bng 30 250 50 0 empty empty empty 17 7 0 10 -262144 -1
-1;
#X text 47 51 Clap trigger;
#X text 47 479 Bypass ADCs;
#X text 47 18 TESTING TOOLS;
#X obj 29 170 tgl 15 0 empty empty empty 17 7 0 10 -262144 -1 -1 0
1;
#X obj 47 415 vline~;
#X obj 49 221 s clap;
#X obj 47 283 r clap;
#X text 48 148 Auto clap;
#X text 45 256 Simulated wobble (triggered by auto clap);
#X obj 64 195 del 2500;
#X msg 345 217 0 1 \, 1 125 730 \, 0 125 855 \, 1 125 1230 \, 0 125
1355 \, 1 125 1480 \, 0 125 1605 \, 1 125 1980 \, 0 125 2105;
#X text 378 191 5/8 wobble;
#X obj 47 451 s~ fakeWobble;
#X msg 415 448 0 1 \, 1 75 438 \, 0 75 513 \, 1 75 588 \, 0 75 663
\, 1 75 738 \, 0 75 813 \, 1 75 888 \, 0 75 963 \, 1 75 1038 \, 0 75
1113 \, 1 75 1188 \, 0 75 1263 \, 1 75 1338 \, 0 75 1413;
#X text 80 308 Default wobble (metro at 2000);
#X text 459 421 Superfast wobble (change metro to 1200);
#X obj 49 171 metro 2000;
#X msg 47 336 0 1 \, 1 125 730 \, 0 125 855 \, 1 125 980 \, 0 125 1105
\, 1 125 1230 \, 0 125 1355 \, 1 125 1480 \, 0 125 1605 \, 1 125 1730
\, 0 125 1855 \, 1 125 1980 \, 0 125 2105 \, 1 125 2230 \, 0 125 2355
\, 1 125 2480 \, 0 125 2605 \, 1 125 2730 \, 0 125 2855 \, 1 125 2980
\, 0 125 3105 \, 1 125 3230 \, 0 125 3355 \, 1 125 3480 \, 0 125 3605
;
#X connect 1 0 0 0;
#X connect 3 0 2 0;
#X connect 7 0 20 0;
#X connect 8 0 16 0;
#X connect 10 0 21 0;
#X connect 20 0 9 0;
#X connect 20 0 13 0;
#X connect 21 0 8 0;
